<svg xmlns="http://www.w3.org/2000/svg" xmlns:xlink="http://www.w3.org/1999/xlink" fill="none" version="1.1" width="80" height="80" viewBox="0 0 80 80"><clipPath id="master_svg0_5_050"><rect x="0" y="0" width="80" height="80" rx="0"/></clipPath><g clip-path="url(#master_svg0_5_050)" style="mix-blend-mode:passthrough"><g><g style="mix-blend-mode:passthrough"><path d="M0.9447509857177734,57.443623861694334C0.9447509857177734,57.443623861694334,22.193100985717773,16.228593861694335,22.193100985717773,16.228593861694335C24.143600985717775,12.445127861694337,29.522500985717773,12.358976861694336,31.593200985717772,16.078013861694338C31.593200985717772,16.078013861694338,54.45240098571777,57.13322386169433,54.45240098571777,57.13322386169433C56.76550098571777,61.287423861694336,52.897200985717774,66.16302386169434,48.32590098571777,64.85542386169433C48.32590098571777,64.85542386169433,29.496900985717772,59.469123861694335,29.496900985717772,59.469123861694335C28.538700985717774,59.19502386169434,27.523000985717772,59.194923861694335,26.564900985717774,59.46862386169433C26.564900985717774,59.46862386169433,7.150380985717773,65.01562386169434,7.150380985717773,65.01562386169434C2.6581609857177733,66.29912386169434,-1.1960990142822265,61.59612386169434,0.9447509857177734,57.443623861694334C0.9447509857177734,57.443623861694334,0.9447509857177734,57.443623861694334,0.9447509857177734,57.443623861694334Z" fill="#3970E3" fill-opacity="1"/></g><g style="mix-blend-mode:passthrough"><path d="M64.2091538269043,62.34436282653809L72.9866538269043,64.85536282653808C77.5580538269043,66.16296282653809,81.42625382690429,61.287362826538086,79.1132538269043,57.13316282653808L56.2540538269043,16.077952826538088C54.1832538269043,12.358915826538086,48.804433826904294,12.445066826538087,46.8538538269043,16.228532826538085L43.0910399583043,23.52716282653809L64.2091538269043,62.34436282653809Z" fill-rule="evenodd" fill="#3970E3" fill-opacity="0.5"/></g></g></g></svg>